<?xml version="1.0" standalone="no"?>
<!DOCTYPE svg PUBLIC "-//W3C//DTD SVG 20010904//EN"
 "http://www.w3.org/TR/2001/REC-SVG-20010904/DTD/svg10.dtd">
<svg version="1.0" xmlns="http://www.w3.org/2000/svg"
 width="579.000000pt" height="579.000000pt" viewBox="0 0 579.000000 579.000000"
 preserveAspectRatio="xMidYMid meet">
<metadata>
Created by potrace 1.11, written by Peter Selinger 2001-2013
</metadata>
<g transform="translate(0.000000,579.000000) scale(0.100000,-0.100000)"
fill="#000000" stroke="none">
<path d="M3499 5506 c-2 -2 -23 -6 -47 -10 -23 -3 -52 -11 -65 -17 -12 -7 -24
-12 -27 -12 -13 2 -90 -44 -141 -82 -56 -44 -115 -110 -139 -155 -7 -14 -16
-27 -20 -30 -6 -5 -44 -98 -55 -137 -20 -73 -26 -147 -27 -323 0 -94 -4 -158
-10 -161 -6 -4 -24 -5 -40 -2 -28 4 -29 3 -26 -28 3 -36 19 -44 107 -53 25 -3
57 -7 71 -9 14 -3 52 -9 85 -13 33 -4 71 -9 85 -11 14 -2 45 -6 70 -9 25 -2
72 -10 105 -15 33 -6 71 -12 85 -14 14 -2 59 -9 100 -15 41 -7 86 -14 100 -15
14 -2 25 -4 25 -5 0 -1 14 -3 30 -5 17 -2 46 -7 65 -10 19 -4 46 -9 60 -11 14
-2 41 -7 60 -10 19 -3 49 -8 65 -10 50 -6 84 -11 230 -38 172 -31 193 -34 236
-40 30 -5 99 -18 154 -30 115 -25 203 -143 221 -295 3 -25 7 -58 9 -73 34
-199 52 -1320 31 -1898 -15 -397 -14 -413 8 -416 36 -5 95 38 105 77 19 74 26
131 35 319 2 36 6 108 10 160 17 245 25 1225 13 1525 -11 257 -27 439 -47 529
-5 22 -7 43 -5 46 3 4 -10 31 -28 60 -37 62 -78 87 -157 95 -30 3 -134 17
-230 31 -193 28 -220 31 -300 39 -30 3 -58 9 -62 13 -3 4 -9 113 -11 242 -5
253 -8 282 -32 368 -51 183 -147 308 -294 380 -42 20 -80 36 -84 34 -4 -1 -16
2 -27 8 -10 5 -38 12 -62 15 -56 8 -224 15 -229 11z m167 -277 c13 -4 24 -6
24 -3 0 16 112 -57 153 -101 85 -90 115 -214 113 -480 l-1 -160 -30 2 c-121
10 -215 20 -265 27 -19 3 -60 7 -90 11 -30 3 -73 8 -95 10 -40 6 -137 14 -210
18 l-40 2 0 190 c1 233 8 273 64 360 48 73 95 109 172 129 56 15 160 13 205
-5z"/>
<path d="M1870 5297 c-3 -3 -21 -8 -42 -11 -78 -12 -200 -75 -268 -138 -81
-75 -145 -194 -176 -328 -14 -59 -17 -125 -18 -317 -1 -222 -2 -242 -18 -237
-9 2 -26 7 -39 9 -12 2 -36 9 -53 14 -17 6 -42 12 -56 15 -22 4 -78 17 -130
30 -24 7 -113 27 -135 32 -11 2 -45 9 -75 15 -30 7 -61 12 -67 12 -7 0 -13 3
-13 6 0 3 -10 6 -22 7 -13 1 -36 4 -53 8 -23 6 -38 2 -64 -16 -64 -43 -64 -42
-66 -658 -1 -305 2 -674 6 -820 5 -146 11 -341 13 -435 6 -212 11 -326 22
-485 5 -69 9 -144 9 -168 0 -23 3 -42 6 -42 3 0 4 -15 3 -32 -3 -37 17 -215
30 -275 10 -45 42 -99 82 -140 29 -29 86 -63 189 -112 81 -39 148 -71 150 -71
3 0 37 -15 77 -34 158 -73 206 -95 283 -127 44 -18 82 -34 85 -35 3 0 23 -9
45 -19 48 -21 88 -38 95 -40 3 0 28 -11 55 -24 28 -13 70 -31 95 -41 25 -10
128 -52 230 -95 102 -42 190 -77 195 -79 14 -4 66 -24 95 -38 14 -6 34 -14 45
-18 20 -8 201 -79 240 -95 11 -5 22 -9 25 -10 3 -1 18 -7 33 -13 16 -7 34 -12
41 -12 6 0 16 -4 22 -9 5 -4 43 -20 84 -35 41 -15 86 -33 100 -39 14 -6 30
-12 35 -13 6 0 24 -7 40 -13 17 -7 35 -14 40 -15 6 -1 27 -10 49 -19 21 -9 44
-17 51 -17 6 0 15 -3 18 -7 6 -5 92 -39 122 -47 6 -2 24 -9 40 -15 17 -7 37
-14 45 -16 8 -2 16 -4 18 -5 1 -2 5 -3 10 -5 4 -1 14 -5 22 -8 92 -38 166 -58
214 -58 76 0 104 58 113 231 2 52 6 129 8 170 32 682 19 2712 -19 2820 -3 8
-8 32 -11 53 -6 47 -26 86 -67 132 -29 33 -94 75 -117 75 -5 0 -22 5 -38 11
-15 7 -35 13 -43 14 -8 1 -44 12 -80 25 -36 12 -72 24 -80 25 -8 2 -16 4 -17
5 -2 2 -6 3 -10 4 -11 2 -185 57 -203 63 -8 3 -20 7 -27 8 -40 9 -199 59 -206
65 -4 4 -8 105 -8 226 0 187 -5 285 -24 459 -5 41 -39 168 -63 230 -28 76
-103 204 -124 213 -4 2 -8 8 -8 14 0 9 -39 47 -118 115 -14 12 -37 27 -51 35
-14 7 -28 16 -31 20 -17 22 -203 91 -305 114 -39 8 -229 17 -235 11z m215
-324 c104 -30 178 -74 250 -147 74 -75 106 -126 135 -216 30 -91 33 -115 37
-389 l5 -264 -34 7 c-18 4 -44 10 -57 12 -14 3 -28 7 -33 10 -4 3 -42 14 -85
25 -43 12 -85 23 -93 25 -8 2 -55 15 -105 29 -49 15 -101 28 -114 31 -14 3
-28 7 -33 10 -4 3 -18 7 -29 9 -12 3 -36 9 -53 14 -17 6 -42 12 -56 14 -14 2
-32 6 -40 9 -41 15 -102 31 -115 31 -22 0 -22 437 1 533 17 76 45 135 80 173
13 14 24 29 24 33 0 5 5 8 10 8 6 0 24 9 39 21 54 40 169 49 266 22z"/>
<path d="M2023 4487 c-24 -10 -31 -26 -13 -28 6 -1 18 -2 28 -3 9 -1 42 -6 72
-11 30 -4 62 -9 70 -10 9 0 21 -4 28 -9 6 -4 12 -5 12 -3 0 3 35 -3 79 -12
105 -23 109 -21 102 53 0 8 -9 15 -18 15 -10 0 -52 2 -93 5 -197 13 -246 13
-267 3z"/>
<path d="M1756 4403 c-3 -3 -6 -37 -6 -74 l0 -67 35 -6 c19 -4 36 -7 37 -6 2
0 29 -8 61 -19 31 -11 57 -18 57 -16 0 2 18 -2 40 -10 22 -8 43 -14 45 -14 5
1 89 -23 151 -42 17 -5 35 -9 42 -9 6 0 23 -5 39 -11 15 -7 35 -13 43 -15 8
-1 35 -8 59 -14 24 -6 46 -8 49 -6 5 5 5 196 0 201 -2 2 -23 6 -48 10 -25 3
-65 11 -90 16 -25 6 -58 12 -75 14 -16 2 -55 8 -85 15 -30 6 -73 13 -95 15
-22 3 -62 9 -90 14 -27 5 -57 10 -65 10 -25 1 -81 10 -89 16 -5 2 -11 2 -15
-2z"/>
<path d="M2916 4414 c-3 -8 -2 -14 3 -14 4 0 7 -25 6 -55 -1 -51 1 -55 21 -55
13 0 25 -4 29 -9 3 -6 13 -8 23 -6 10 2 43 -3 73 -11 29 -8 72 -16 94 -19 22
-3 51 -9 65 -14 20 -8 77 -19 185 -37 6 -1 13 -3 18 -4 10 -3 14 -4 82 -20 33
-8 62 -14 65 -15 12 -3 96 -19 102 -19 3 -1 10 -4 14 -8 4 -5 18 -8 31 -8 14
0 32 -4 41 -9 9 -5 33 -12 52 -15 19 -3 59 -12 88 -20 28 -8 52 -12 52 -9 0 3
6 1 13 -5 6 -6 30 -14 52 -18 51 -10 54 -11 60 -14 3 -1 8 -3 13 -4 81 -16
212 -70 212 -87 0 -6 4 -8 9 -5 10 6 82 -94 99 -139 20 -50 41 -172 37 -212
-1 -13 1 -23 4 -23 3 0 6 -26 7 -58 0 -31 4 -102 8 -157 31 -394 32 -1556 3
-2167 -4 -88 -10 -83 115 -113 63 -15 104 -15 128 0 13 8 45 67 42 78 -1 4 2
16 7 25 9 17 22 178 25 295 0 31 3 57 6 57 3 0 5 37 6 82 1 107 13 533 15 533
7 0 10 731 4 930 -2 66 -6 199 -9 295 -3 96 -8 211 -12 255 -3 44 -7 104 -8
133 0 28 -3 52 -6 52 -3 0 -6 29 -8 64 -1 36 -9 83 -17 105 -8 23 -12 41 -9
41 11 0 -41 87 -65 107 -24 21 -31 24 -47 22 -4 0 -10 4 -13 10 -4 6 -25 12
-46 15 -22 2 -48 7 -57 11 -9 4 -21 5 -25 2 -4 -3 -19 0 -33 5 -14 6 -43 12
-64 14 -22 3 -51 6 -65 9 -14 3 -55 10 -90 15 -36 6 -68 13 -73 16 -5 3 -26 7
-46 9 -20 1 -53 5 -72 9 -19 4 -51 9 -70 11 -19 2 -35 4 -35 5 0 1 -11 3 -25
4 -14 2 -48 8 -77 15 -29 7 -57 10 -63 6 -5 -3 -10 -2 -10 2 0 5 -8 9 -17 10
-30 2 -116 12 -148 18 -16 2 -48 7 -70 10 -22 3 -65 11 -95 17 -30 6 -71 12
-90 14 -19 1 -64 7 -99 13 -35 5 -66 10 -70 9 -3 0 -8 1 -11 2 -3 1 -25 4 -50
6 -25 2 -65 8 -90 13 -25 5 -52 10 -60 10 -8 -1 -25 2 -37 4 -13 4 -24 0 -27
-9z"/>
<path d="M2925 4065 c1 -132 4 -143 48 -146 19 -2 26 -3 47 -12 22 -8 195 -59
198 -58 1 1 18 -5 37 -13 20 -9 37 -15 40 -16 3 0 10 -2 17 -5 54 -16 88 -26
104 -29 10 -3 30 -9 44 -14 14 -5 28 -10 32 -11 4 -1 27 -9 50 -17 24 -9 51
-17 61 -19 47 -10 150 -106 185 -173 21 -42 40 -100 48 -155 4 -30 8 -82 18
-277 18 -339 25 -1491 13 -2067 -5 -223 -4 -324 4 -328 5 -4 20 -8 32 -10 12
-2 72 -20 132 -40 61 -21 116 -38 123 -38 6 0 12 -3 12 -7 0 -4 6 -7 13 -8 6
-1 24 -4 40 -8 40 -9 81 12 105 55 25 44 33 83 38 171 2 36 5 99 8 140 6 90
17 367 22 540 5 182 6 1340 0 1510 -6 193 -15 373 -22 438 -3 29 -7 79 -9 110
-8 141 -32 219 -82 269 -27 27 -93 69 -93 59 0 -3 -21 2 -47 10 -27 9 -55 17
-63 18 -8 1 -31 8 -50 14 -19 6 -49 14 -67 17 -18 3 -44 10 -59 15 -15 6 -29
8 -32 5 -3 -2 -10 -1 -16 4 -7 6 -23 12 -36 15 -14 3 -42 10 -62 15 -21 5 -38
7 -38 4 0 -3 -6 0 -13 6 -8 6 -16 8 -19 6 -3 -3 -18 -1 -33 5 -15 6 -61 17
-103 26 -43 9 -84 17 -92 19 -13 3 -75 17 -135 31 -11 3 -29 7 -40 8 -11 2
-38 7 -60 11 -22 5 -49 10 -60 11 -11 1 -20 3 -20 4 0 1 -13 4 -30 6 -16 3
-45 9 -62 15 -18 6 -37 8 -42 5 -5 -4 -12 -3 -15 2 -2 4 -20 9 -38 10 l-33 2
0 -125z"/>
</g>
</svg>
